<svg width="76" height="76" viewBox="0 0 76 76" fill="none" xmlns="http://www.w3.org/2000/svg">
<rect width="76" height="76" rx="10" fill="#DFF0F5"/>
<path d="M36.53 49.25H31.25C30.32 49.25 29.495 49.22 28.76 49.115C24.815 48.68 23.75 46.82 23.75 41.75V34.25C23.75 29.18 24.815 27.32 28.76 26.885C29.495 26.78 30.32 26.75 31.25 26.75H36.44" stroke="#378BA2" stroke-width="2" stroke-linecap="round" stroke-linejoin="round"/>
<path d="M42.5298 26.75H44.7498C45.6798 26.75 46.5048 26.78 47.2398 26.885C51.1848 27.32 52.2498 29.18 52.2498 34.25V41.75C52.2498 46.82 51.1848 48.68 47.2398 49.115C46.5048 49.22 45.6798 49.25 44.7498 49.25H42.5298" fill="#42A7C3"/>
<path d="M42.5298 26.75H44.7498C45.6798 26.75 46.5048 26.78 47.2398 26.885C51.1848 27.32 52.2498 29.18 52.2498 34.25V41.75C52.2498 46.82 51.1848 48.68 47.2398 49.115C46.5048 49.22 45.6798 49.25 44.7498 49.25H42.5298" stroke="#378BA2" stroke-width="2" stroke-linecap="round" stroke-linejoin="round"/>
<path d="M42.5 23V53" stroke="#42A7C3" stroke-width="2" stroke-linecap="round" stroke-linejoin="round"/>
<path d="M36.6417 38H36.6551" stroke="#42A7C3" stroke-width="2" stroke-linecap="round" stroke-linejoin="round"/>
<path d="M30.6417 38H30.6551" stroke="#42A7C3" stroke-width="2" stroke-linecap="round" stroke-linejoin="round"/>
</svg>
