<svg width="361" height="320" viewBox="0 0 361 320" fill="none" xmlns="http://www.w3.org/2000/svg">
<mask id="mask0_445_1329" style="mask-type:luminance" maskUnits="userSpaceOnUse" x="0" y="0" width="361" height="320">
<path d="M0 0H361V319.661H0V0Z" fill="white"/>
</mask>
<g mask="url(#mask0_445_1329)">
<path fill-rule="evenodd" clip-rule="evenodd" d="M224.781 29.6979L224.917 28.8802L224.781 30.0417V29.6979ZM233.469 4.65104V4.79167L233.266 4.24479L233.469 4.65104ZM234.292 6.35938L233.745 5.47396V5.40625L234.292 6.35938ZM257.896 19.4688L261.797 19.9167H257.896C254.474 18.5469 251.693 18.8854 249.547 18.151C252.01 18.8333 254.797 19.1927 257.896 19.4688ZM260.151 29.6667C254.859 29.026 251.234 28.2135 249.276 27.1146C246.948 25.8385 244.349 25.3854 241.474 25.1615L241.135 25.3906H241.406C244.234 25.3906 246.839 26.0156 249.203 27.2031C251.349 28.4323 254.979 29.4948 260.089 29.4948H261.521L260.151 29.6667ZM264.74 149.87L264.328 149.667V149.531L264.74 149.87ZM282.188 141.729L282.12 142L279.177 142.547C278.536 142.823 277.88 143.12 277.193 143.573C274.318 145.125 272.177 147.203 270.76 151.307H270.625C272.083 148.573 274.271 145.161 277.193 143.474L279.036 142.427L281.844 141.729H282.188ZM302.917 226.792V226.859L302.854 226.656L302.917 226.792ZM228.547 157.672L237.438 158.286L232.307 158.151L228.547 157.672ZM239.286 24.9792C239.375 24.9375 239.443 24.9062 239.495 24.9062H239.661C239.542 24.9115 239.411 24.9375 239.286 24.9792ZM243.188 64.875L243.255 64.0573L243.391 63.2344L243.188 64.875ZM249.073 62.0729V62.1719L249.755 65.0833H249.688L249.755 65.7292L249.688 65.2292C249.594 64.1406 249.438 63.125 249.203 62.2188L249.344 62.0729L249.073 60.7656V59.7396V62.0729ZM238.255 25.25C238.396 25.1615 238.599 25.0938 238.875 25.0469C238.646 25.0938 238.417 25.1823 238.193 25.3177L238.255 25.25ZM308.328 187.167L308.667 187.031L309.625 186.896L308.328 187.167ZM228.958 164.583L228.818 165.885C228.818 166.156 228.859 166.339 228.958 166.438C228.859 166.385 228.75 166.182 228.615 165.812L228.885 164.583V164.245H228.958V164.583ZM263.917 151.036L263.302 150.417H263.37L263.917 151.036ZM271.786 163.078L272.536 161.708L271.24 164.245L271.786 163.078ZM272.198 171.839H271.922L274.865 171.292L272.198 171.839ZM273.562 173.208H273.635L273.703 173.276V173.344L273.562 173.276V173.208ZM240.177 161.984L240.589 161.917L239.698 162.12L240.177 161.984ZM257.281 159.182V159.109L257.354 159.182H257.281ZM261.177 165.198H260.839V165.13L260.771 165.068L261.177 165.198ZM268.776 169.104L268.641 169.375V169.307H268.573L268.021 169.375L268.776 169.104ZM261.318 165.13V165.198H261.25L261.318 165.13ZM266.651 164.583L266.448 164.448L266.724 164.583H266.651ZM268.302 163.557H268.432L268.302 163.698V163.557ZM257.214 159.25V159.182L257.281 159.25H257.214ZM272.469 161.365H272.406C272.083 160.177 271.875 159.521 271.786 159.385L271.922 159.453L272.469 161.365ZM238.052 158.495V160L237.984 159.865L238.052 158.495ZM223.958 191.344C224.099 191.073 224.229 190.911 224.37 190.865C224.641 190.406 224.984 190.047 225.396 189.766C225.125 189.995 224.802 190.359 224.438 190.865L223.958 191.344ZM222.521 194.01C222.568 193.693 222.661 193.469 222.797 193.328L222.932 193.188C222.703 193.469 222.568 193.74 222.521 194.01ZM299.839 201.401L298.266 199.557L299.021 200.375L299.839 201.401ZM330.083 278.667V278.531L330.839 279.073C330.469 278.849 330.224 278.714 330.083 278.667ZM320.573 287.286L321.26 287.151L321.672 287.016L321.328 287.224V287.151L320.573 287.286ZM320.229 139.333L320.094 139.125L320.302 139.401L320.229 139.333ZM198.677 70.4167L198.865 71.1042L198.438 70.4167V68.0208L198.677 70.4167ZM360.943 310.078C360.943 308.708 360.693 308.047 360.188 307.135L358.62 304.604H358.479L357.182 302.891V302.823L354.062 300.292L342.281 291.875L341.76 291.599L339.375 289.682L338.021 287.63V287.427L337.37 285.99L336.651 284.964V193.599L318.865 190.589C320.229 190.229 321.38 190.021 322.245 189.974C324.391 189.245 326.255 188.651 327.807 188.193C330.177 187.604 332.104 187.167 333.562 186.896C336.667 185.755 339.292 184.339 341.438 182.651C343.76 180.323 344.818 177.312 344.583 173.62L344.516 173.068C343.969 169.557 342.219 166.844 339.25 164.927L332.615 161.161L329.974 160.135L329.812 160.339V160.135C329.812 159.724 330.599 159.411 330.729 159.182L352.339 116.271L352.292 115.755C352.203 115.573 352.068 115.724 351.839 115.724H351.365L349.172 116.099L349.651 115.188L349.854 114.568C349.906 114.25 349.88 114.349 349.786 114.255C349.651 114.073 349.422 114.354 349.104 114.354H348.698L292.521 124.995C291.375 125.177 290.536 125.682 289.984 126.823L283.557 139.615L282.12 138.62C281.021 137.932 280.042 137.495 279.177 137.125L276.031 136.255H275.755L263.167 123.833L263.953 102.906L268.229 88.8281V88.2083L269.083 85.2708L270.365 79.8646L270.839 74.3229C270.792 73.5885 270.594 72.6302 270.318 71.4427C270.229 70.3958 270.047 69.4375 269.823 68.5729L268.99 66.1771L267.682 63.9167C267.276 63.1823 266.75 62.4583 266.109 61.7292C265.109 60.724 264.49 60.1302 264.26 59.9479C264.078 59.7604 263.531 59.2656 262.62 58.4427L258.651 55.9115L256.802 55.0885C256.76 55 256.62 54.9062 256.391 54.8177L252.286 52.9688L256.802 46.7396C257.578 45.6458 258.349 44.4115 259.125 43.0417L263.51 32.9167L264.057 31.1354C264.234 30.3125 264.328 29.4948 264.328 29.4948L264.125 28.2604V24.9792L268.469 22.4792C270.021 21.2917 271.036 19.9167 271.172 18.5469H271.036L270.417 18.7188L268.365 18.974L271.036 18.5469H271.099L270.969 18.4062V18.276C266.859 12.9323 262.807 8.67188 257.792 5.47396C253.323 2.64583 248.724 0.885417 243.885 0.203125L242.339 0L236.505 0.140625C235.318 0.458333 234.021 0.703125 234.021 0.885417V0.958333L232.651 1.70833V1.91146L232.307 2.11979H232.24L231.552 2.70312C231.281 2.70312 231.031 2.11979 230.802 3.48958H230.323L228.547 4.85938H228.474C227.609 4.85938 226.766 6.22917 225.943 7.59896H225.807V7.45833L224.609 9.16667C224.198 9.90104 223.875 10.6042 223.599 11.2917C221.953 14.5729 221.146 17.9948 221.146 21.5573C221.099 25.4792 222.062 28.9323 224.021 31.7188L222.932 39.0781H222.115C220.698 39.0781 219.599 39.6615 218.828 41.026C218.464 41.6667 218.161 42.276 217.938 42.9583C217.62 43.7344 217.276 44.6667 216.911 45.8073L214.995 47.1667L214.036 47.6354C213.443 47.9583 212.646 48.5 211.641 49.276L201.516 56.9375C198.781 57.8958 196.385 59.2656 194.333 61.0469L194.125 61.1094L193.953 61.1771C191.536 63.3698 190.229 65.7865 188.859 68.4323V69.1875V68.8438L189.062 68.7083L189.333 68.4323L189.302 68.7083C188.969 69.5312 188.958 70.3854 188.703 71.2708C187.698 68.276 187.49 65.0938 187.49 61.7292V61.6615C187.49 61.5677 187.49 61.5 187.49 61.4531L187.625 53.7188L186.943 53.651L47.2865 43.9375L35.2812 44.6875L35.5938 52.4219C35.5938 52.5104 35.5938 52.6042 35.5938 52.6927C35.5938 60.5833 32.8958 67.1354 27.3802 72.3385C24.1823 75.2552 20.6615 77.2865 16.7396 78.4271L11.901 78.1562L0 78.901L0.145833 86.1562C1.01042 129.458 6.4375 169.375 16.4271 205.917C26.5573 244.062 55.2969 274.583 102.641 297.49L105.385 298.922L117.286 298.104L119.786 297.078C146.562 287.891 166.964 275.432 182.016 259.708V300.292L259.026 314.802L309.776 305.766L312.37 306.312C313.01 306.083 313.771 305.974 314.594 305.974C316.505 305.974 318.365 306.568 320.146 307.755L324.464 310.833L325.562 311.792C326.427 312.562 327.161 313.13 327.755 313.5L329.604 314.729C333.938 317.193 338.365 318.812 342.88 319.589L345.823 319.661C349.698 319.661 353.167 318.583 356.224 316.443L356.354 316.307C358.229 315.484 359.594 314.229 360.464 312.542C360.734 311.901 360.896 311.62 360.943 311.344L361.01 310.078H360.943Z" fill="#ED9870"/>
</g>
<path fill-rule="evenodd" clip-rule="evenodd" d="M320.302 139.401L320.094 139.125L319.89 138.922C318.974 137.693 317.63 137.01 315.854 136.87H314.62C314.255 136.87 313.864 136.938 313.458 137.073C312.818 137.167 312.224 137.302 311.677 137.484L309.828 138.51C308.005 139.745 306.682 141.318 305.864 143.229L305.453 144.537C305.359 145.083 305.338 145.537 305.38 145.906C305.38 146.682 305.635 147.5 306.135 148.365C307.047 149.87 308.531 150.693 310.583 150.828L311.265 150.896C313.135 150.854 314.89 150.302 316.536 149.255C318.542 148.021 319.89 146.448 320.573 144.537C320.797 143.896 320.958 143.208 321.047 142.484V141.865L320.917 140.906L320.64 139.948L320.364 139.537L320.302 139.401ZM218.693 154.932C219.167 151.078 219.599 147.188 219.989 143.271L224.573 145.219L223.958 146.724C223 149.51 223.182 152.859 224.51 156.787L218.693 154.932ZM249.823 69.8022V66.9949L249.755 66.6563V65.698L249.687 65.0105H249.755V65.2136H249.823C249.917 64.9897 250.052 64.8751 250.229 64.8751L250.302 64.7397C250.62 65.8803 250.984 66.8126 251.396 67.547L251.807 68.2292L252.219 68.5053L252.354 68.4324L250.781 74.4532L250.37 72.8126V72.1303L250.099 69.599H249.89L249.823 69.8022ZM330.015 160.339C329.693 160.662 329.198 160.912 328.51 161.094V161.162C310.901 164.583 293.318 168.005 275.755 171.427C275.437 171.474 275.14 171.521 274.864 171.568L271.922 172.115H271.719C271.443 172.115 271.26 172.042 271.172 171.912C271.078 171.682 271.193 171.339 271.51 170.885L272.125 169.646L272.062 169.578L292.588 128.656C293.224 127.51 294.073 126.854 295.12 126.672L349.172 116.068L351.364 115.656H351.838C352.068 115.516 352.229 115.537 352.323 115.724L352.39 116.271L330.838 159.182C330.698 159.412 330.427 159.724 330.015 160.135V160.339ZM268.776 150.76L266.036 150.417L265.765 150.354H265.698C265.604 150.302 265.536 150.281 265.495 150.281L264.739 149.87L264.328 149.531L263.51 147.203L260.771 136.047L260.703 135.297H260.771L260.292 130.708C260.203 128.698 260.177 127.198 260.224 126.193C260.177 118.302 261.318 110.521 263.646 102.854L263.167 123.729L275.755 136.047L274.864 135.979H274.661C273.656 136.068 272.927 136.182 272.469 136.323L270.625 137.141C269.12 138.005 268 139.266 267.271 140.906L266.724 142.891L266.588 144.74C266.542 145.193 266.542 145.625 266.588 146.037C266.859 147.776 267.588 149.349 268.776 150.76ZM247.495 75.5522L240.448 70.6928L243.255 64.0574L243.187 64.8751C243.094 65.422 243.114 65.9688 243.255 66.5209C243.39 67.4792 243.87 68.3647 244.693 69.1876L245.651 70.4897H245.786C246.198 71.0782 246.495 71.6042 246.677 72.0574L247.224 73.9792C247.224 74.5261 247.312 75.0522 247.495 75.5522ZM256.802 55.0886L258.651 55.9115L262.62 58.4428C263.531 59.2657 264.078 59.7605 264.26 59.948C264.489 60.1303 265.104 60.724 266.109 61.7292C266.745 62.4584 267.271 63.1824 267.677 63.9167L268.984 66.1772L269.802 68.573C270.031 69.4376 270.193 70.3959 270.281 71.4428C270.557 72.6303 270.713 73.5886 270.76 74.323L270.213 79.8647L268.776 85.2709L267.614 88.2084L267.75 82.4636C267.75 75.349 266.833 69.5313 265.01 65.0105C263.187 60.5834 260.453 57.2813 256.802 55.0886ZM188.448 71.2709C188.703 70.3855 189 69.5313 189.333 68.7084L189.406 68.4324C192.187 64.4167 195.292 62.4115 198.713 62.4115L200.489 62.4792C200.765 62.5261 201.219 62.6876 201.859 62.9584C201.265 63.0522 200.807 63.2605 200.489 63.573L199.328 65.0105L198.849 67.3386L198.781 68.0209V70.4167L199.125 71.1042V71.3751L199.667 75.5522C199.807 77.5105 199.849 79.2657 199.807 80.823C199.807 82.1928 199.76 83.2657 199.667 84.0365C199.536 84.7188 199.463 85.4532 199.463 86.2292V86.297C197.979 85.1511 196.568 83.8542 195.219 82.3959C192.057 79.0209 189.797 75.3074 188.448 71.2709Z" fill="#B6C5FE"/>
<path fill-rule="evenodd" clip-rule="evenodd" d="M259.265 214.198V314.802L182.495 300.292V259.708C193.922 247.609 201.838 233.583 206.239 217.62C207.979 211.49 209.588 205.229 211.057 198.833L211.984 199.005C212.484 199.687 213.151 200.443 213.969 201.266L215.885 202.635C216.338 202.953 217.073 203.344 218.073 203.797H218.14C217.599 204.578 217.323 205.349 217.323 206.125C217.276 206.307 217.276 206.562 217.323 206.875C217.687 207.74 218.573 208.203 219.989 208.245H220.062C220.838 209.25 221.906 209.75 223.276 209.75L224.64 209.615C225.146 209.573 225.901 209.391 226.901 209.068L229.911 208.245C230.37 208.021 231.417 207.63 233.062 207.083L237.437 205.99H237.849L239.286 205.849V205.917H239.562V205.786C240.698 205.463 241.588 205.302 242.229 205.302C243.135 205.073 243.963 204.963 244.693 204.963L245.099 205.099C245.422 205.281 245.812 205.375 246.265 205.375L247.151 205.234H247.292L247.359 205.302L247.838 205.917L259.198 214.062L259.265 214.198Z" fill="#F3648F"/>
<mask id="mask1_445_1329" style="mask-type:luminance" maskUnits="userSpaceOnUse" x="220" y="0" width="141" height="314">
<path d="M220.771 0H361V313.245H220.771V0Z" fill="white"/>
</mask>
<g mask="url(#mask1_445_1329)">
<path fill-rule="evenodd" clip-rule="evenodd" d="M239.562 205.786V205.917H239.286V205.786L239.422 205.375H239.495L239.562 205.786ZM221.635 205.849L222.797 203.594L228.614 189.427L228.885 189.495C229.25 189.865 230.114 190.568 231.484 191.615C231.896 192.026 232.219 192.302 232.443 192.443C234.401 194.312 235.271 195.995 235.047 197.505C234.812 199.646 233.838 201.339 232.099 202.568C230.505 203.755 228.156 204.599 225.052 205.099L223.344 205.302L221.635 205.849ZM238.255 25.25L238.193 25.3177H238.052C237.552 27.599 236.021 29.7448 233.469 31.75L231.828 29.224C230.458 26.8906 229.39 24.474 228.614 21.9688C228.614 21.7812 228.588 21.6927 228.547 21.6927L227.448 15.7396C227.307 15.1458 227.245 14.5521 227.245 13.9583L227.104 13.8229L226.833 11.0208L226.562 10.0625V9.98958C226.422 9.07812 226.239 8.21354 226.01 7.39062H225.943C226.765 6.29687 227.609 5.38542 228.474 4.65104V4.71875L232.989 13.8229C233.536 14.875 234.109 15.7396 234.703 16.4219L236.823 20.3281C237.187 20.7812 237.573 21.099 237.984 21.2812C238.125 21.8281 238.193 22.4635 238.193 23.1979L237.984 25.1823V25.25H238.255ZM330.083 278.667C330.224 278.714 330.469 278.849 330.838 279.073L331.042 279.281L332.682 280.651C333.411 281.286 334.167 282.13 334.943 283.182C335.719 283.865 336.312 284.458 336.724 284.964L336.786 284.828V284.964L337.677 285.99L338.495 287.427V287.63L339.594 289.682L341.713 291.599L342.198 291.875L353.89 300.292L356.838 302.823V302.891L358.479 304.807H358.62L360.187 307.068C360.693 307.979 360.943 308.87 360.943 309.734C358.156 312.021 354.484 313.156 349.927 313.156C348.651 313.156 345.911 311.38 341.713 307.818L332.682 299.542C327.39 294.339 323.583 290.255 321.26 287.286V287.224H321.328L321.672 287.016L324.677 285.786H324.75L328.302 284.208C329.63 283.297 330.354 282.156 330.495 280.786C330.495 279.969 330.354 279.255 330.083 278.667ZM234.292 6.35938L233.745 5.40625L233.609 5.20312L233.469 4.85938V4.65104L233.265 4.24479L232.854 3.34896L232.781 2.9375L232.307 2.11979V1.98438L232.239 1.91146V1.70833L233.948 0.958333V0.885417C234.453 0.703125 235.297 0.458333 236.484 0.140625L242.364 0L243.937 0.203125C248.771 0.885417 253.427 2.64583 257.896 5.47396C262.917 8.67188 267.338 12.9323 271.172 18.276V18.4062L271.099 18.4792H271.036L268.364 18.9583L266.932 19.2292H266.109C264.599 19.3646 263.167 19.4323 261.797 19.4323L257.896 19.2292C254.797 18.9583 252.01 18.4792 249.547 17.7917L247.151 16.9688L239.219 12.3177L238.193 11.2917L237.51 10.7448L237.37 10.4688L235.864 8.55208V8.48438L234.432 6.64062L234.292 6.35938Z" fill="#B64932"/>
</g>
<mask id="mask2_445_1329" style="mask-type:luminance" maskUnits="userSpaceOnUse" x="219" y="1" width="142" height="318">
<path d="M219.438 1.36987H361V318.578H219.438V1.36987Z" fill="white"/>
</mask>
<g mask="url(#mask2_445_1329)">
<path fill-rule="evenodd" clip-rule="evenodd" d="M247.292 205.234H247.151L246.266 205.375C245.812 205.375 245.422 205.281 245.099 205.099L244.693 204.964C243.964 204.964 243.135 205.073 242.229 205.302C241.589 205.302 240.698 205.464 239.562 205.786L239.495 205.375H239.422L239.286 205.786V205.849L237.849 205.99H237.438L233.062 207.083C231.417 207.63 230.37 208.021 229.911 208.245L226.901 209.068C225.901 209.391 225.146 209.573 224.641 209.615L223.276 209.75C221.906 209.75 220.839 209.25 220.062 208.245H220.125C220.63 207.609 221.13 206.812 221.635 205.849L223.344 205.302L225.052 205.099C228.156 204.599 230.505 203.755 232.099 202.568C233.839 201.339 234.813 199.646 235.047 197.505C235.271 195.995 234.401 194.312 232.443 192.443C232.219 192.302 231.896 192.026 231.484 191.615C230.115 190.568 229.25 189.865 228.885 189.495C229.573 189.948 230.417 190.432 231.417 190.932L236 193.328L243.391 201.469C244.349 202.427 245.604 203.594 247.151 204.964H247.292L247.224 205.099L247.292 205.234ZM356.354 316.307V316.24H356.286C353.599 317.24 350.792 317.74 347.875 317.74C345.089 317.74 342.125 317.286 338.979 316.37C334.875 314.958 331.151 312.927 327.828 310.281C327.005 309.734 326.411 309.214 326.047 308.708L325.839 308.573L324.13 307.068L321.802 305.562C320.432 304.875 319.297 304.375 318.38 304.052L310.651 300.911C310.38 300.812 309.786 300.521 308.87 300.016L307.365 298.719C304.583 296.208 303.672 293.245 304.63 289.823C304.63 289.641 304.766 289.276 305.042 288.724L305.312 288.312C305.995 287.312 306.5 286.604 306.818 286.198L308.12 283.932C308.349 283.432 308.641 282.885 309.01 282.292C310.693 284.302 312.547 285.755 314.547 286.672C315.464 287.042 316.125 287.266 316.536 287.354C317.448 287.536 318.13 287.63 318.589 287.63C319.135 287.63 319.797 287.516 320.573 287.286L321.328 287.151V287.224H321.26V287.286C323.583 290.255 327.391 294.339 332.682 299.542L341.714 307.818C345.911 311.38 348.651 313.156 349.927 313.156C354.484 313.156 358.156 312.021 360.943 309.734H361.01L360.943 311.177C360.896 311.448 360.734 311.901 360.464 312.542C359.594 314.229 358.229 315.484 356.354 316.307ZM224.026 31.6198C222.068 28.8333 221.109 25.4792 221.151 21.5573C221.151 17.9948 221.974 14.5729 223.615 11.2917C223.891 10.6042 224.229 9.90104 224.641 9.16667L225.875 7.45833V7.39062H226.01C226.24 8.21354 226.422 9.07812 226.562 9.98958V10.0625L226.833 11.0208L227.104 13.8229L227.245 13.9583C227.245 14.5521 227.307 15.1458 227.448 15.7396L228.547 21.6927C228.589 21.6927 228.615 21.7812 228.615 21.9688C229.391 24.474 230.458 26.8906 231.828 29.224L233.469 31.75H233.406L231.01 33.1927C230.958 33.0521 230.729 32.9844 230.323 32.9844C229.865 32.5729 229.5 32.1198 229.229 31.6198L227.589 26.6198V26.4844C227.177 25.6615 226.833 25.1146 226.562 24.8385C225.557 25.6198 225.005 26.7083 224.917 28.125V28.8802L224.781 29.6979V30.0417L224.573 31.8229V31.8906L224.099 31.6198H224.026ZM234.292 6.35938L234.432 6.64062L235.865 8.48438V8.55208L237.37 10.4688L237.51 10.7448L238.193 11.2917L239.219 12.3177L247.151 16.9688L249.547 17.7917C251.693 18.5208 254.474 19.0677 257.896 19.4323H261.797C263.167 19.4323 264.599 19.3646 266.109 19.2292H266.932L268.365 18.9583L270.417 18.75L271.036 18.6146H271.172C271.036 20.026 270.193 21.3333 268.641 22.5156L264.469 24.9792V24.7031H264.328C263.51 25.0677 262.891 25.2969 262.484 25.3906C261.979 25.4792 261.229 25.5208 260.224 25.5208C259.266 25.5208 258.49 25.4792 257.896 25.3906C257.255 25.3438 256.297 25.1146 255.021 24.7031L251.057 23.4062C249.411 22.625 248.047 22.0573 246.948 21.6927C245.901 21.2344 245.036 21.0104 244.349 21.0104C243.573 20.7812 243.005 20.6667 242.641 20.6667C242.047 20.4844 241.568 20.4115 241.203 20.4583C240.745 20.4115 240.339 20.4844 239.969 20.6667C239.422 20.6667 238.74 20.7552 237.917 20.9427V21.0104L237.984 21.2812C237.573 21.099 237.188 20.7812 236.823 20.3281L234.703 16.4219C234.109 15.7396 233.536 14.875 232.99 13.8229L228.474 4.71875V4.65104H228.547L230.323 2.875H230.802C231.031 2.51042 231.281 2.32292 231.552 2.32292L232.24 1.98438H232.307V2.11979L232.781 2.9375L232.854 3.34896L233.266 4.24479L233.469 4.79167V4.85938L233.609 5.20312L233.745 5.40625V5.47396L234.292 6.35938Z" fill="#7F2412"/>
</g>
<path fill-rule="evenodd" clip-rule="evenodd" d="M272.406 161.365H272.469L272.536 161.708L271.786 163.078L271.443 163.146L270.281 162.807V162.672L269.734 162.391L266.932 160.135V160.276L264.599 157.943C263.734 156.896 262.828 155.891 261.865 154.932C260.906 153.839 260.224 152.974 259.812 152.339C261.547 152.469 264.214 154.089 267.818 157.198L269.12 158.151L271.099 160L272.406 161.708L272.469 161.646L272.406 161.365ZM267.062 164.313L266.932 164.245H266.651C266.016 164.245 265.375 164.104 264.74 163.833L264.599 163.901L264.328 163.76V163.698L263.781 163.422L263.714 163.287L263.234 162.875L263.099 162.604L262.688 162.328C262.547 162.099 262.365 161.984 262.141 161.984L258.307 159.724V159.656H258.24L257.417 159.182H257.354L257.281 159.109L256.729 158.766C256.641 158.677 256.526 158.63 256.391 158.63L255.776 157.943L255.641 157.672C254.635 156.672 253.995 155.917 253.724 155.417C253.359 154.823 253.177 154.432 253.177 154.25L253.312 153.776C255.141 153.865 257.938 155.417 261.729 158.427L262.344 158.969C262.938 159.432 263.714 160.135 264.672 161.094C265.354 161.729 265.88 162.391 266.245 163.078L267.062 164.313ZM246.745 160.891L238.193 158.495H237.984L238.052 158.427L237.229 157.469V157.672L237.167 157.469C236.573 156.417 236.182 155.526 236 154.802L235.865 153.224C235.729 152.448 235.771 151.672 236 150.896V150.828H236.073L236.755 148.844V148.708C236.891 148.302 237.099 147.958 237.37 147.677L238.193 146.724C239.01 145.854 240.057 145.422 241.339 145.422C241.979 145.287 242.594 145.333 243.188 145.563L243.729 145.698V145.833H243.458L240.995 148.021C239.125 149.391 238.193 150.599 238.193 151.651C238.052 151.88 238.052 152.156 238.193 152.469C238.599 155.255 242.365 157.974 249.484 160.62L259.745 164.448L260.292 164.859H260.495L260.771 165.068L259.125 164.859L258.854 164.927L258.172 164.656H258.51V164.583L256.802 164.172C256.667 164.042 256.479 163.969 256.255 163.969C254.063 163.287 252.26 162.625 250.854 161.984L247.839 160.682H247.495L246.745 160.891ZM272.266 154.521L273.292 155.417C273.745 155.781 274.229 156.375 274.729 157.198V157.328L273.771 158.969V158.906L273.635 158.766L271.172 157.198L270.76 156.787L264.057 151.24L263.917 151.037L263.37 150.417C263.646 150.328 263.896 150.281 264.125 150.281C264.536 150.281 265.083 150.417 265.766 150.693L266.109 150.76V150.693L265.766 150.354L266.036 150.417L272.266 154.521ZM230.323 32.9845V33.1199L230.255 33.3959C230.073 34.0782 229.615 34.422 228.885 34.422H228.474C227.38 34.1459 226.693 33.2345 226.422 31.6824L226.562 29.1511C226.651 28.6511 226.786 28.198 226.969 27.7865C227.057 27.3282 227.266 26.9376 227.589 26.6199L229.229 31.6199C229.5 32.1199 229.865 32.573 230.323 32.9845ZM263.234 29.4272H262.828L262.203 29.4949C262.026 29.6303 261.797 29.698 261.521 29.698H260.089C254.979 29.1511 251.349 28.2605 249.203 27.0313C246.839 25.8438 244.234 25.1147 241.406 24.8386H241.135L240.724 24.9063H239.495C239.443 24.9063 239.375 24.9376 239.286 24.9792C239.151 24.9792 239.01 25.0001 238.875 25.047C238.599 25.0938 238.396 25.1615 238.255 25.2501H237.984V25.1824L238.193 23.198C238.193 22.4636 238.125 21.8282 237.984 21.2813L237.917 21.0105V20.9428C238.74 20.7553 239.422 20.6667 239.969 20.6667C240.339 20.4845 240.745 20.4115 241.203 20.4584C241.568 20.4115 242.047 20.4845 242.641 20.6667C243.005 20.6667 243.573 20.7813 244.349 21.0105C245.036 21.0105 245.901 21.2345 246.948 21.6928C248.047 22.0574 249.411 22.6251 251.057 23.4063L255.021 24.7032C256.297 25.1147 257.255 25.3438 257.896 25.3907C258.49 25.4792 259.266 25.5209 260.224 25.5209C261.229 25.5209 261.979 25.4792 262.484 25.3907C262.891 25.297 263.51 25.0678 264.328 24.7032H264.469V28.2605L264.328 29.1511H264.26L263.234 29.4272Z" fill="#ED9870"/>
<path fill-rule="evenodd" clip-rule="evenodd" d="M237.437 158.287L237.229 157.74V157.469L238.052 158.427L237.984 158.495H237.917L237.51 158.427L237.437 158.287ZM263.37 150.417H263.302L263.917 151.037L264.057 151.24L270.76 156.787L271.172 157.198L273.635 158.766L273.771 158.906V158.969H273.906L273.635 159.453H273.292C272.698 159.453 272.245 159.412 271.922 159.313V159.453L271.786 159.385C271.875 159.521 272.083 160.177 272.406 161.365L272.469 161.646L272.406 161.708L271.099 160L269.12 158.151L267.818 157.198C264.213 154.089 261.547 152.469 259.812 152.339C260.224 152.974 260.906 153.839 261.864 154.932C262.828 155.891 263.734 156.896 264.599 157.943L266.932 160.276L266.724 160.339V160.412L268.229 162.672L268.302 163.078V163.698C268.203 164.016 267.838 164.224 267.203 164.313H267.062L266.245 163.078C265.88 162.391 265.354 161.729 264.672 161.094C263.713 160.135 262.937 159.432 262.344 158.969L261.729 158.427C257.937 155.417 255.14 153.865 253.312 153.776L253.177 154.25C253.177 154.432 253.359 154.823 253.724 155.417C253.995 155.917 254.635 156.672 255.64 157.672L255.776 157.943L256.39 158.63C256.526 158.63 256.64 158.677 256.729 158.766L257.281 159.109V159.25L257.213 159.182C256.573 158.859 255.937 158.63 255.297 158.495L256.323 159.385L256.87 159.865L257.828 160.682C257.917 160.729 258.01 160.802 258.099 160.891C259.062 161.667 259.927 162.464 260.703 163.287V163.422L261.318 164.245L261.521 164.583H261.385V164.927L261.318 165.13L261.25 165.198H261.177L260.771 165.068L260.495 164.859H260.292L259.745 164.448L249.484 160.62C242.364 157.974 238.599 155.255 238.193 152.469C238.052 152.156 238.052 151.88 238.193 151.651C238.193 150.599 239.125 149.391 240.995 148.021L243.458 145.833H243.667L243.937 146.037C245.125 146.037 246.609 146.109 248.385 146.245L254.677 146.448C258.51 146.859 261.729 147.891 264.328 149.531V149.667L264.739 149.87L265.495 150.281C265.536 150.281 265.604 150.302 265.698 150.354H265.765L266.109 150.693V150.76L265.765 150.693C265.083 150.417 264.536 150.281 264.125 150.281C263.896 150.281 263.646 150.328 263.37 150.417ZM252.286 52.9688V53.0365L251.807 53.9949H251.739L251.672 54.0626V54.2657L251.125 54.6772L251.057 55.0209L250.781 55.2292L248.864 57.4845H245.099C244.375 57.3438 243.76 57.2813 243.255 57.2813L241.474 56.8022L241.406 56.6615L234.906 50.5001L233.193 48.5886C230.547 45.0261 229.64 41.422 230.458 37.7761C230.187 37.8647 229.797 37.9115 229.297 37.9115C228.109 37.9115 227.177 37.4584 226.489 36.5417C225.396 35.0834 224.755 33.7813 224.573 32.6459V31.823L224.781 30.0417L224.917 28.8803V28.1251C225.005 26.7084 225.557 25.6199 226.562 24.8386C226.833 25.1147 227.177 25.6615 227.588 26.4845V26.6199C227.265 26.9376 227.057 27.3282 226.969 27.7865C226.786 28.198 226.651 28.6511 226.562 29.1511L226.422 31.6824C226.693 33.2345 227.38 34.1459 228.474 34.422H228.885C229.614 34.422 230.073 34.0782 230.255 33.3959L230.323 33.1199V32.9845C230.729 32.9845 230.958 33.0522 231.01 33.1928L233.406 31.7501H233.469C236.021 29.7449 237.552 27.599 238.052 25.3178H238.193C238.417 25.1824 238.646 25.0938 238.875 25.047C239.01 25.0001 239.151 24.9792 239.286 24.9792C239.411 24.9376 239.542 24.9115 239.661 24.9063H240.724L241.135 24.8386L241.474 24.9063C244.349 25.1407 246.948 25.8855 249.276 27.172C251.234 28.2605 254.859 29.1251 260.151 29.7709L261.521 29.698C261.797 29.698 262.026 29.6303 262.203 29.4949L262.828 29.4272H263.234L264.26 29.224H264.328C264.328 29.5886 264.234 30.1824 264.057 31.0001L263.51 32.9167L259.125 43.0417C258.349 44.4115 257.578 45.6459 256.802 46.7397L252.286 52.9688Z" fill="#FCA472"/>
<path fill-rule="evenodd" clip-rule="evenodd" d="M270.76 151.51C272.177 147.859 274.318 145.261 277.193 143.714C277.88 143.261 278.537 142.891 279.177 142.615L282.12 142.141H282.531L274.865 157.401H274.729V157.198C274.229 156.375 273.745 155.781 273.292 155.417L272.266 154.521C271.854 153.839 271.625 153.406 271.583 153.224L270.625 151.724L270.76 151.51ZM248.797 57.4845V59.7397L248.662 59.8803V59.7397H248.589C247.271 61.1563 246.037 61.8647 244.896 61.8647H244.281L244.484 60.4272C244.484 59.1042 244.073 58.0522 243.255 57.2813C243.76 57.2813 244.375 57.3438 245.099 57.4845H248.797ZM224.573 31.8907V32.6459C224.755 33.7813 225.396 35.0834 226.49 36.5417C227.177 37.4584 228.109 37.9115 229.297 37.9115C229.797 37.9115 230.188 37.8647 230.458 37.7761C229.641 41.422 230.547 45.0261 233.193 48.5886L234.906 50.5001L241.406 56.6615V56.8022C239.125 56.073 236.385 54.5209 233.193 52.1511L225.396 45.7813C224.714 45.1876 224.188 44.6407 223.823 44.1407C223.412 43.6824 223.141 43.2032 223 42.7032C222.682 42.2449 222.521 41.6511 222.521 40.922C222.427 40.3751 222.568 39.7136 222.932 38.9376V38.8699L224.026 31.6199H224.099L224.573 31.8907Z" fill="#CE7C56"/>
<path fill-rule="evenodd" clip-rule="evenodd" d="M320.093 139.125L320.229 139.333L320.302 139.401L320.364 139.537L320.64 139.948L320.916 140.906L321.047 141.865V142.484C320.958 143.208 320.797 143.896 320.573 144.537C319.89 146.448 318.541 148.021 316.536 149.255C314.89 150.302 313.135 150.854 311.265 150.896L310.583 150.828C308.531 150.693 307.047 149.87 306.135 148.365C305.635 147.5 305.38 146.682 305.38 145.906C305.338 145.537 305.359 145.083 305.453 144.537L305.864 143.229C306.682 141.318 308.005 139.745 309.828 138.51L311.677 137.484C312.224 137.302 312.817 137.167 313.458 137.073C313.864 136.938 314.255 136.87 314.619 136.87H315.854C317.63 137.01 318.974 137.693 319.89 138.922L320.093 139.125ZM224.573 145.219L224.781 145.354H224.916C226.01 142.984 227.791 141.297 230.255 140.292C232.625 140.521 234.974 141.177 237.302 142.276L243.187 145.563C242.593 145.333 241.979 145.287 241.338 145.422C240.057 145.422 239.01 145.854 238.192 146.724L237.369 147.677C237.099 147.958 236.89 148.302 236.755 148.708V148.844L236.073 150.828H236V150.896C235.771 151.672 235.729 152.448 235.864 153.224L236 154.802C236.182 155.526 236.573 156.417 237.166 157.469L237.229 157.672V157.74L237.437 158.287L228.547 157.672C227.63 157.537 226.312 157.24 224.573 156.787H224.51C223.182 152.859 223 149.51 223.958 146.724L224.573 145.219ZM248.797 59.7397V57.4845H248.864L250.781 55.2292L251.057 55.0209L251.125 54.6772L251.672 54.2657V54.0626L251.739 53.9949C251.828 54.6303 251.968 55.2084 252.151 55.7032L252.354 68.4324L252.218 68.5053L251.807 68.2292L251.396 67.547C250.984 66.8126 250.619 65.8803 250.302 64.7397C249.849 63.6876 249.547 62.797 249.411 62.073H249.276V62.1355L249.203 62.073L248.797 60.7657V59.7397ZM243.255 57.2813C244.073 58.0522 244.484 59.1042 244.484 60.4272L244.281 61.8647H244.14L243.39 63.2345L243.255 64.0574L240.448 70.6928L221.494 52.7657C219.442 50.8438 217.937 48.5209 216.984 45.7813H216.911C217.276 44.6407 217.619 43.6824 217.937 42.9115C218.161 42.224 218.463 41.5626 218.828 40.922C219.599 39.5522 220.698 38.8699 222.114 38.8699H222.932V38.9376C222.567 39.7136 222.427 40.3751 222.521 40.922C222.521 41.6511 222.682 42.2449 223 42.7032C223.14 43.2032 223.411 43.6824 223.823 44.1407C224.187 44.6407 224.713 45.1876 225.396 45.7813L233.192 52.1511C236.385 54.5209 239.125 56.073 241.406 56.8022V56.6615L241.474 56.8022L243.255 57.2813ZM349.172 116.068L295.119 126.672C294.073 126.854 293.224 127.51 292.588 128.656L272.062 169.578L269.666 170.063H269.599V170.13L269.531 170.063H269.119L268.916 169.922L268.776 169.787H268.64C268.593 169.74 268.593 169.604 268.64 169.375L268.776 169.104H268.916L269.047 168.828L269.187 168.349H269.119L269.187 168.146H269.255L269.328 167.938L269.531 167.667V167.594L269.802 166.776H269.942L270.146 166.438H270.213L270.557 165.813H270.484L270.557 165.682L270.76 165.271H270.625L270.896 165.068H270.968L271.239 164.313V164.245L272.536 161.708H272.677L273.635 159.453L273.906 158.969H273.771L274.729 157.328V157.401H274.864L282.531 142.141H282.119L282.187 142H281.843C280.244 142 278.625 142.505 276.984 143.51C273.927 145.104 271.765 147.776 270.484 151.51H270.416L268.916 150.896L268.776 150.76C267.588 149.349 266.859 147.776 266.588 146.037C266.541 145.625 266.541 145.193 266.588 144.74L266.724 142.891L267.271 140.906C268 139.266 269.119 138.005 270.625 137.141L272.468 136.323C272.927 136.182 273.656 136.068 274.661 135.979H274.864L275.755 136.047H276.031L279.177 137.01C280.041 137.37 281.021 137.896 282.119 138.578L283.557 139.537L289.984 126.672C290.536 125.537 291.375 124.87 292.521 124.688L348.698 113.74H349.104C349.422 113.693 349.651 113.76 349.786 113.943C349.88 114.037 349.906 114.245 349.854 114.557L349.651 115.172L349.172 116.068Z" fill="#E9F0FF"/>
<path fill-rule="evenodd" clip-rule="evenodd" d="M240.448 70.6927L247.495 75.5521V75.6198L249.823 77.2604H249.891L250.781 74.6615V74.4531L252.354 68.4323L252.151 55.7031C251.969 55.2083 251.828 54.6302 251.74 53.9948H251.807L252.286 53.0365V52.9688L256.391 54.8177C256.62 54.9062 256.76 55 256.802 55.0885C260.453 57.2813 263.188 60.5833 265.01 65.0104C266.833 69.5312 267.75 75.349 267.75 82.4635L267.615 88.2083V88.8281L263.646 102.854C261.318 110.521 260.177 118.302 260.224 126.193C260.177 127.198 260.203 128.698 260.292 130.708L260.771 135.297H260.703L255.776 136.87C253.495 137.51 249.979 137.828 245.24 137.828L237.849 137.625C233.375 137.349 229.958 136.208 227.589 134.203C225.396 132.281 224.323 129.5 224.37 125.849C224.109 121.026 223.38 116.208 222.177 111.411C222.333 107.682 222.448 103.917 222.521 100.12L222.661 92.9323L220.026 92.6615L220.193 90.8802C220.333 89.875 220.401 88.875 220.401 87.8698L220.193 85.6823C219.781 80.4792 218.281 75.5521 215.677 70.901C212.396 64.8281 208.062 61.3854 202.677 60.5625C202.224 60.474 201.448 60.4271 200.354 60.4271H200.078C198.984 60.4271 198.141 60.474 197.547 60.5625L194.125 61.3854V61.1771C194.214 61.1771 194.286 61.1302 194.333 61.0469C196.385 59.2656 198.781 57.8958 201.516 56.9375L211.641 49.2708C212.646 48.4948 213.443 47.9479 214.036 47.6302L214.995 47.151L216.911 45.7812H216.984C217.938 48.5208 219.443 50.8438 221.495 52.7656L240.448 70.6927Z" fill="#F9BBE2"/>
<path fill-rule="evenodd" clip-rule="evenodd" d="M222.797 193.328C222.661 193.469 222.568 193.693 222.521 194.01C222.568 193.74 222.703 193.469 222.932 193.187L222.797 193.328ZM224.37 190.865C224.229 190.911 224.099 191.073 223.958 191.344L224.437 190.865C224.802 190.359 225.125 189.995 225.396 189.766C224.984 190.047 224.64 190.406 224.37 190.865ZM243.39 63.2343L244.14 61.8645H244.896C246.036 61.8645 247.271 61.1562 248.588 59.7395H248.661V60.7655L249.14 62.0728L249.203 62.203C249.437 63.1197 249.594 64.1249 249.687 65.2135L249.755 65.6978V66.6562L249.823 66.9947V69.802L249.484 70.0051C248.703 70.328 247.995 70.4895 247.359 70.4895H245.651L244.693 69.1874C243.87 68.3645 243.39 67.4791 243.255 66.5208C243.114 65.9687 243.094 65.4218 243.187 64.8749L243.39 63.2343ZM344.521 173.068C342.057 175.26 337.88 177.521 331.995 179.844C329.583 180.849 326.411 181.969 322.489 183.203L309.625 186.896L308.667 187.031L308.328 187.167L290.943 191.958V192.026L289.167 190.25C287.068 188.427 285.562 187.057 284.651 186.141C283.01 184.411 281.844 183.13 281.161 182.307L276.917 178.818L275.755 177.177V177.104L275.958 177.245H276.031L291.151 170.198L310.724 166.844L311.338 166.911V166.776L325.495 164.312L326.802 163.63L327.687 162.672L328.302 161.646L328.51 161.365L328.578 161.234L328.51 161.161V161.094C329.198 160.911 329.693 160.661 330.015 160.338L330.083 160.135L332.614 161.161L339.25 164.927C342.219 166.844 343.969 169.557 344.521 173.068ZM302.854 226.656L302.917 226.859L303.057 227.062V227.203L305.312 233.635C305.495 234.276 305.953 235.958 306.682 238.698L310.995 254.849C311.265 255.625 311.542 256.516 311.812 257.516L314.344 266.073C317.354 274.833 320.797 281.359 324.677 285.646V285.786L321.672 287.016L321.26 287.151L320.573 287.286C319.797 287.516 319.135 287.63 318.588 287.63C318.13 287.63 317.448 287.536 316.536 287.354C316.125 287.266 315.463 287.042 314.547 286.672C312.547 285.755 310.693 284.302 309.01 282.292L308.87 282.156C306.224 278.87 304.515 276.677 303.739 275.588L299.568 270.797C296.052 266.781 292.542 263.474 289.031 260.875C285.333 257.312 283.193 252.5 282.599 246.432L282.667 230.078L259.265 214.198L259.198 214.062L247.838 205.917L247.359 205.302L247.292 205.234L247.224 205.099L247.292 204.963H247.151C245.604 203.594 244.349 202.427 243.39 201.469L236 193.328L231.417 190.932C230.417 190.432 229.573 189.948 228.885 189.495L228.614 189.427L222.797 203.594L221.635 205.849C221.13 206.812 220.63 207.609 220.125 208.245H219.989C218.573 208.203 217.687 207.74 217.323 206.875C217.276 206.562 217.276 206.307 217.323 206.125C217.323 205.349 217.599 204.578 218.14 203.797H218.073C217.073 203.344 216.338 202.953 215.885 202.635L213.969 201.266C213.151 200.443 212.484 199.687 211.984 199.005C211.76 198.75 211.51 198.427 211.229 198.047C213.229 189.245 214.963 180.198 216.432 170.917L232.307 158.151L237.437 158.286L237.51 158.427L237.917 158.495H238.052L237.984 159.865L238.052 160L238.463 160.479L240.177 161.984L239.698 162.12L238.463 162.328C238.099 162.37 237.755 162.443 237.437 162.531C234.656 162.984 231.875 163.469 229.088 163.969L228.958 164.172V164.245H228.885V164.583L228.614 165.812C228.75 166.182 228.859 166.385 228.958 166.437C229.271 167.073 229.864 167.463 230.729 167.594C236.979 168.734 243.255 169.88 249.547 171.016L252.219 171.5L264.672 181.281C273.292 188.536 280.614 195.583 286.635 202.427C288.505 204.479 290.396 206.766 292.312 209.271L296.969 215.911C299.474 219.698 301.437 223.281 302.854 226.656Z" fill="#1A226A"/>
<path fill-rule="evenodd" clip-rule="evenodd" d="M211.984 199.005L211.057 198.833C211.115 198.578 211.172 198.318 211.229 198.047C211.51 198.427 211.76 198.75 211.984 199.005ZM232.307 158.151L216.432 170.917C217.271 165.667 218.026 160.338 218.693 154.932L224.51 156.786H224.573C226.312 157.24 227.63 157.536 228.547 157.672L232.307 158.151ZM220.745 134.953C221.385 127.25 221.87 119.401 222.177 111.411C223.38 116.208 224.109 121.026 224.37 125.849C224.323 129.5 225.396 132.281 227.589 134.203C229.958 136.208 233.375 137.349 237.849 137.625L245.24 137.828C249.979 137.828 253.495 137.51 255.776 136.87L260.703 135.297L260.771 136.047L263.51 147.203L264.328 149.531C261.729 147.891 258.51 146.859 254.677 146.448L248.385 146.245C246.609 146.109 245.125 146.036 243.938 146.036L243.667 145.833H243.729V145.698L243.188 145.562L237.302 142.276C234.974 141.177 232.625 140.521 230.255 140.292V140.151C230.026 139.927 229.161 139.375 227.651 138.51C226.464 137.781 224.458 136.75 221.635 135.432C221.333 135.271 221.042 135.109 220.745 134.953ZM299.021 200.375L298.266 199.557L297.51 198.661C297.01 198.12 296.51 197.547 296.01 196.953L302.443 195.109C304.448 194.516 306.224 194.031 307.776 193.672L318.865 190.588H318.932L336.786 193.599V193.672H336.724L299.021 200.375ZM189.406 68.4322L189.203 68.7083L189.13 68.8437V68.5051H189.062V68.4322C189.974 65.7864 191.641 63.3697 194.062 61.177L194.125 61.1093L194.333 61.0468C194.286 61.1301 194.214 61.177 194.125 61.177V61.3853L197.547 60.5624C198.141 60.4739 198.984 60.427 200.078 60.427H200.354C201.448 60.427 202.224 60.4739 202.677 60.5624C208.062 61.3853 212.396 64.828 215.677 70.901C218.281 75.552 219.781 80.4791 220.193 85.6822L220.401 87.8697C220.401 88.8749 220.333 89.8749 220.193 90.8801L220.026 92.6614L215.203 92.1822C214.224 92.1145 213.266 91.9947 212.328 91.8385C213.026 89.4166 213.87 87.2291 214.859 85.2708L215.615 83.4218L215.677 80.2708C215.677 79.5885 215.589 78.6093 215.406 77.328C214.266 72.7655 211.391 68.7968 206.781 65.4218C206.099 64.8749 205.323 64.3697 204.458 63.9166L202.062 62.9583H201.859C201.219 62.6874 200.766 62.526 200.49 62.4791L198.714 62.4114C195.292 62.4114 192.188 64.4166 189.406 68.4322Z" fill="#F796CE"/>
<path fill-rule="evenodd" clip-rule="evenodd" d="M219.99 143.271C220.266 140.51 220.516 137.74 220.745 134.953C221.042 135.109 221.333 135.271 221.635 135.432C224.458 136.75 226.464 137.781 227.651 138.51C229.161 139.375 230.026 139.927 230.255 140.151V140.292C227.792 141.297 226.01 142.984 224.917 145.354H224.781L224.573 145.219L219.99 143.271ZM199.464 86.2968V86.2291C199.464 85.453 199.536 84.7187 199.667 84.0364C199.76 83.2655 199.807 82.1926 199.807 80.8228C199.849 79.2655 199.807 77.5103 199.667 75.552L199.125 71.3749V71.1041L198.849 70.4166L198.781 68.0208L198.849 67.3385L199.328 65.0103L200.49 63.5728C200.807 63.2603 201.266 63.052 201.859 62.9583H202.062L204.458 63.9166C205.323 64.3697 206.099 64.8749 206.781 65.4218C211.391 68.7968 214.266 72.7655 215.406 77.328C215.589 78.6093 215.677 79.5885 215.677 80.2708L215.615 83.4218L214.859 85.2708C213.87 87.2291 213.026 89.4166 212.328 91.8385C207.583 91.0728 203.297 89.2187 199.464 86.2968Z" fill="#F6F9FF"/>
<path fill-rule="evenodd" clip-rule="evenodd" d="M268.916 167.734L266.244 167.323L263.781 167.802V167.938L263.166 167.802L260.494 168.281H260.224V168.349L262.687 168.896L265.698 168.417L265.833 168.349H265.765L264.057 168.078L266.724 168.281L269.255 167.802H269.187L268.916 167.734ZM257.073 167.938L259.88 168.281L265.083 167.391H265.01L262.484 166.844L257.073 167.802V167.938ZM252.765 166.094L250.099 166.438V167.12L251.192 167.391L253.651 167.052V167.12L256.187 167.667H256.39L263.646 166.568L263.369 166.438L260.224 165.885L259.406 166.094L259.333 165.885L257.073 165.609L256.599 165.271L253.448 165.885V166.094H252.765ZM257.213 159.25L256.323 159.385L255.297 158.495C255.937 158.63 256.573 158.859 257.213 159.182V159.25ZM270.896 165.068L270.625 165.271L270.281 165.609V165.682H270.557L270.484 165.813L270.416 165.75L269.599 165.609H269.328L267.062 166.156L266.724 166.297V166.365L270.146 166.438L269.942 166.776H269.802V166.708L267.271 167.052L268.573 166.776H268.505L265.698 166.224L263.234 166.776V166.912L265.698 167.323H266.036L267.271 167.052V167.12L269.328 167.594H269.531V167.667L269.328 167.938H269.255L268.984 168.146H269.187L269.119 168.349V168.281L267.817 168.208L263.713 169.104L266.521 169.578H266.994L267.958 169.787H268.776L268.916 169.922L269.119 170.063H269.531L269.599 170.13L268.64 171.839V172.526L268.776 173L269.187 173.479L269.328 173.552L325.494 163.901L326.802 163.219L328.302 161.646L327.687 162.672L326.802 163.63L325.494 164.313L311.338 166.776L311.265 166.708L310.724 166.776V166.844L291.151 170.198L291.625 170.063H291.562L273.703 173.068V173.208H273.562L269.328 173.896L269.119 174.026L267.677 174.167L252.218 171.5L249.547 171.016C243.255 169.88 236.979 168.734 230.729 167.594C229.864 167.464 229.271 167.073 228.958 166.438C228.859 166.339 228.817 166.156 228.817 165.885L228.958 164.583H229.088L265.698 171.224L268.64 171.5L268.776 171.359L268.916 170.885L269.187 170.333L267.677 170.401L247.838 166.844L247.703 166.708L247.771 166.568L258.172 164.656L258.854 164.927L257.073 165.198V165.271L257.213 165.406L258.307 165.609H258.583L260.838 165.198H261.317V165.13L261.385 164.927V165.068L263.302 165.271L264.328 165.13H264.599L261.177 165.682V165.75L264.057 166.297L267.062 165.885V165.813L264.599 165.13H265.151L267.614 165.75H268.021L270.416 165.13V165.068L267.614 164.656L266.312 164.927L266.244 164.859L263.369 164.245H263.031L261.521 164.583L261.317 164.245L264.26 163.833L264.328 163.76L264.599 163.901L264.057 164.172L266.448 164.448L266.651 164.583H267.338L270.76 163.833L270.625 163.76L268.432 163.422V163.557H268.302V163.078L268.432 163.146L270.281 162.807L271.442 163.146L271.786 163.078L271.239 164.245V164.172L268.64 164.583V164.656L270.896 165.068ZM250.302 64.7397L250.229 64.8751C250.052 64.8751 249.916 64.9897 249.823 65.2136H249.755V65.0105L249.276 62.1355V62.073H249.411C249.547 62.797 249.849 63.6876 250.302 64.7397Z" fill="#A7ADE4"/>
<path fill-rule="evenodd" clip-rule="evenodd" d="M238.052 160V158.495H238.192L246.744 160.891C245.099 161.161 243.458 161.437 241.817 161.708C241.547 161.755 241.271 161.807 240.994 161.849L240.588 161.917L240.177 161.984L238.463 160.479L238.052 160ZM245.786 70.4895H247.359C247.994 70.4895 248.703 70.328 249.484 70.0051L249.823 69.802L249.89 69.5989H250.099L250.369 72.1301V72.8124L250.781 74.453V74.6614L249.89 77.2603H249.823L247.494 75.6197V75.552C247.312 75.052 247.224 74.526 247.224 73.9791L246.677 72.0572C246.494 71.6041 246.198 71.078 245.786 70.4895ZM344.521 173.068L344.593 173.62C344.817 177.312 343.765 180.323 341.442 182.651C339.297 184.338 336.672 185.755 333.573 186.896C332.114 187.167 330.198 187.604 327.828 188.193C326.271 188.651 324.427 189.245 322.286 189.974C321.416 190.021 320.302 190.229 318.932 190.588H318.864L307.776 193.672C306.224 194.031 304.448 194.516 302.442 195.109L296.01 196.953C296.51 197.547 297.01 198.12 297.51 198.661L298.265 199.557L299.838 201.401L300.593 202.292C301.458 203.292 302.323 204.318 303.192 205.375L306.203 210.297C307.161 211.667 307.916 212.901 308.458 213.995C310.604 218.24 311.677 222.208 311.677 225.906C311.677 227.042 311.541 228.161 311.265 229.255C311.036 230.484 310.744 231.583 310.38 232.536C312.614 241.437 315.192 249.333 318.109 256.219L323.651 268.266L326.729 273.396C328.281 275.812 329.38 277.458 330.015 278.328L330.083 278.531V278.667C330.354 279.255 330.494 279.969 330.494 280.786C330.354 282.156 329.63 283.297 328.302 284.208L324.75 285.786H324.677V285.646C320.797 281.359 317.354 274.833 314.343 266.073L311.812 257.516C311.541 256.516 311.265 255.625 310.994 254.849L306.682 238.698C305.953 235.958 305.494 234.276 305.312 233.635L303.057 227.203V227.062L302.916 226.859V226.792L302.854 226.656C301.437 223.281 299.474 219.698 296.968 215.911L292.312 209.271C290.396 206.766 288.505 204.479 286.635 202.427C280.614 195.583 273.291 188.536 264.672 181.281L252.218 171.5L267.677 174.167L269.119 174.026L269.328 173.896L273.562 173.208V173.276L273.703 173.344V173.276L273.635 173.208H273.703V173.276L273.906 173.479L275.755 177.104V177.177L276.916 178.818L281.161 182.307C281.843 183.13 283.01 184.411 284.651 186.141C285.562 187.057 287.067 188.427 289.166 190.25L290.942 192.026V191.958L308.328 187.167L309.625 186.896L322.489 183.203C326.411 181.969 329.583 180.849 331.994 179.844C337.88 177.521 342.057 175.26 344.521 173.068Z" fill="#2A4BD8"/>
<path fill-rule="evenodd" clip-rule="evenodd" d="M281.843 142L279.036 142.615L277.192 143.573C274.271 145.26 272.083 147.911 270.625 151.51H270.76L270.625 151.724L271.583 153.224C271.625 153.406 271.854 153.839 272.265 154.521L266.036 150.417L268.776 150.76L268.916 150.896L270.416 151.51H270.484C271.765 147.776 273.927 145.104 276.984 143.51C278.625 142.505 280.244 142 281.843 142Z" fill="#CFD7F7"/>
<path fill-rule="evenodd" clip-rule="evenodd" d="M240.588 161.917L240.994 161.849C241.271 161.807 241.547 161.755 241.817 161.708C243.458 161.438 245.099 161.162 246.744 160.891L247.494 160.682H247.838L250.854 161.984C252.26 162.625 254.062 163.287 256.255 163.969C256.479 163.969 256.666 164.042 256.802 164.172L258.51 164.583V164.656H258.172L247.771 166.568L247.703 166.708L247.838 166.844L267.677 170.401L269.187 170.333L268.916 170.885L268.776 171.359L268.64 171.5L265.698 171.224L229.088 164.583H228.958V164.172L229.088 163.969C231.875 163.469 234.656 162.984 237.437 162.531C237.755 162.443 238.099 162.37 238.463 162.328L239.698 162.12L240.588 161.917ZM269.734 162.391L270.281 162.672V162.807L268.432 163.146L268.302 163.078L268.229 162.672V162.604L269.734 162.391ZM256.323 159.385L257.213 159.25H257.281V159.182H257.416L258.239 159.656H258.307V159.724L257.073 159.932L256.869 159.865L256.323 159.385ZM260.703 163.287L262.073 163.557H263.166L263.781 163.422L264.328 163.698V163.76L264.26 163.833L261.317 164.245L260.703 163.422V163.287Z" fill="#DBDEF9"/>
<path fill-rule="evenodd" clip-rule="evenodd" d="M268.916 167.734L269.187 167.802H269.255L266.724 168.281L264.057 168.078L265.765 168.349H265.833L265.698 168.417L262.687 168.896L260.224 168.349V168.281H260.494L263.166 167.802L263.781 167.938V167.802L266.244 167.323L268.916 167.734ZM257.073 167.938V167.802L262.484 166.844L265.01 167.391H265.083L259.88 168.281L257.073 167.938ZM260.771 165.068L260.838 165.13V165.198L258.583 165.609H258.307L257.213 165.406L257.073 165.271V165.198L258.854 164.927L259.125 164.859L260.771 165.068ZM252.765 166.094H253.448V165.885L256.599 165.271L257.073 165.609L259.333 165.885L259.406 166.094L260.224 165.885L263.369 166.438L263.646 166.568L256.39 167.667H256.187L253.651 167.12V167.052L251.192 167.391L250.099 167.12V166.438L252.765 166.094ZM266.932 160.276V160.135L269.734 162.391L268.229 162.604V162.672L266.724 160.411V160.339L266.932 160.276ZM266.724 164.583L266.448 164.448L264.057 164.172L264.739 163.833C265.375 164.104 266.015 164.245 266.651 164.245H266.932L267.062 164.312H267.203C267.838 164.224 268.203 164.016 268.302 163.698L268.432 163.557V163.422L270.625 163.76L270.76 163.833L267.338 164.583H266.724ZM263.781 163.422L263.166 163.557H262.073L260.703 163.286C259.927 162.464 259.062 161.667 258.099 160.891C258.01 160.802 257.916 160.729 257.828 160.682L256.869 159.865L257.073 159.932L258.307 159.724L262.14 161.984C262.364 161.984 262.547 162.099 262.687 162.328L263.099 162.604L263.234 162.875L263.713 163.286L263.781 163.422ZM261.521 164.583L263.031 164.245H263.369L266.244 164.859L266.312 164.927L267.614 164.656L270.416 165.068V165.13L268.021 165.75H267.614L265.151 165.13H264.599L267.062 165.812V165.885L264.057 166.297L261.177 165.75V165.682L264.599 165.13H264.328L263.302 165.271L261.385 165.068V164.583H261.521ZM328.51 161.161L328.578 161.234L328.51 161.365L328.302 161.646L326.802 163.219L325.494 163.901L269.328 173.552L269.187 173.479L268.776 173L268.64 172.526V171.839L269.599 170.13V170.062H269.666L272.062 169.578L272.125 169.646L271.51 170.885C271.192 171.339 271.078 171.682 271.172 171.911C271.26 172.042 271.442 172.115 271.718 172.115H272.198L274.864 171.568C275.14 171.521 275.437 171.474 275.755 171.427C293.317 168.005 310.901 164.583 328.51 161.161ZM268.776 169.104L268.021 169.375L268.573 169.307H268.64V169.375C268.593 169.604 268.593 169.74 268.64 169.786H267.958L266.994 169.578H266.521L263.713 169.104L267.817 168.208L269.119 168.281V168.349H269.187L269.047 168.828L268.916 169.104H268.776ZM269.187 168.146H268.984L269.255 167.938H269.328L269.255 168.146H269.187ZM270.896 165.068L268.64 164.656V164.583L271.239 164.172V164.312L270.968 165.068H270.896ZM270.557 165.682H270.281V165.609L270.625 165.271H270.76L270.557 165.682ZM269.531 167.594H269.328L267.271 167.12V167.052L266.036 167.323H265.698L263.234 166.911V166.776L265.698 166.224L268.505 166.776H268.573L267.271 167.052L269.802 166.708V166.776L269.531 167.594ZM270.484 165.812H270.557L270.213 166.438H270.146L266.724 166.365V166.297L267.062 166.156L269.328 165.609H269.599L270.416 165.75L270.484 165.812ZM272.468 161.365L271.922 159.453V159.312C272.244 159.411 272.698 159.453 273.291 159.453H273.635L272.677 161.708H272.536L272.468 161.365Z" fill="#868BB8"/>
<path fill-rule="evenodd" clip-rule="evenodd" d="M311.339 166.776V166.911L310.724 166.844V166.776L311.266 166.708L311.339 166.776ZM291.151 170.198L276.031 177.245H275.958L275.755 177.104L273.906 173.479L273.703 173.276V173.068L291.562 170.062H291.625L291.151 170.198Z" fill="#131846"/>
<path fill-rule="evenodd" clip-rule="evenodd" d="M259.266 314.802V214.198L282.667 230.078L282.599 246.432C283.193 252.5 285.333 257.312 289.031 260.875C292.542 263.474 296.052 266.781 299.568 270.797L303.74 275.589C304.516 276.677 306.224 278.87 308.87 282.156L309.01 282.292C308.641 282.885 308.349 283.432 308.12 283.932L306.818 286.198C306.5 286.604 305.995 287.312 305.312 288.312L305.042 288.724C304.766 289.276 304.63 289.641 304.63 289.823H304.495C302.349 291.833 301.344 293.927 301.484 296.12C301.484 296.755 301.62 297.417 301.891 298.104C301.984 298.698 302.281 299.401 302.781 300.224C304.563 302.964 306.932 304.807 309.901 305.766L259.266 314.802ZM336.786 284.828L336.724 284.964C336.312 284.458 335.719 283.865 334.943 283.182C334.167 282.13 333.411 281.286 332.682 280.651L331.042 279.281L330.839 279.073L330.083 278.531L330.016 278.328C329.38 277.458 328.281 275.812 326.729 273.396L323.651 268.266L318.109 256.219C315.193 249.333 312.615 241.438 310.38 232.536C310.745 231.583 311.036 230.484 311.266 229.255C311.542 228.161 311.677 227.042 311.677 225.906C311.677 222.208 310.604 218.24 308.458 213.995C307.917 212.901 307.161 211.667 306.203 210.297L303.193 205.375C302.323 204.318 301.458 203.292 300.594 202.292L299.839 201.401L299.021 200.375L336.724 193.672H336.786V284.828Z" fill="#D14B7E"/>
<mask id="mask3_445_1329" style="mask-type:luminance" maskUnits="userSpaceOnUse" x="301" y="289" width="56" height="31">
<path d="M301.062 289.245H356.771V319.662H301.062V289.245Z" fill="white"/>
</mask>
<g mask="url(#mask3_445_1329)">
<path fill-rule="evenodd" clip-rule="evenodd" d="M304.63 289.823C303.672 293.245 304.584 296.208 307.365 298.719L308.87 300.016C309.787 300.521 310.38 300.813 310.651 300.912L318.38 304.052C319.297 304.375 320.433 304.875 321.802 305.563L324.13 307.068L325.839 308.573L326.047 308.708C326.412 309.214 327.005 309.734 327.828 310.281C331.151 312.927 334.875 314.958 338.979 316.37C342.125 317.287 345.089 317.74 347.875 317.74C350.792 317.74 353.599 317.24 356.287 316.24H356.354V316.307L356.224 316.443C353.167 318.583 349.698 319.662 345.823 319.662L342.88 319.589C338.365 318.813 333.938 317.193 329.604 314.729L327.761 313.5C327.167 313.13 326.433 312.563 325.568 311.792L324.469 310.833L320.162 307.755C318.38 306.568 316.537 305.974 314.62 305.974C313.802 305.974 313.068 306.083 312.433 306.313L309.901 305.766C306.933 304.807 304.563 302.964 302.781 300.224C302.281 299.401 301.985 298.698 301.891 298.104C301.62 297.417 301.485 296.755 301.485 296.12C301.344 293.927 302.349 291.833 304.495 289.823H304.63Z" fill="#040404"/>
</g>
<mask id="mask4_445_1329" style="mask-type:luminance" maskUnits="userSpaceOnUse" x="0" y="53" width="224" height="42">
<path d="M0 53.2449H223.438V94.5782H0V53.2449Z" fill="white"/>
</mask>
<g mask="url(#mask4_445_1329)">
<path fill-rule="evenodd" clip-rule="evenodd" d="M16.7759 78.4272C15.2186 78.8386 13.5988 79.0834 11.9165 79.1824C10.4582 79.3126 8.96859 79.3386 7.46859 79.2449L0.0102539 78.9011L11.9165 78.1563L16.7759 78.4272ZM186.807 53.6511L187.354 53.7188L186.943 61.4532C186.943 61.5001 186.943 61.5678 186.943 61.6615V61.7292C186.943 65.0938 187.443 68.2761 188.448 71.2709C189.797 75.3074 192.057 79.0209 195.219 82.3959C196.568 83.8542 197.979 85.1511 199.463 86.297C203.297 89.2188 207.583 91.073 212.328 91.8386C213.265 91.9949 214.224 92.1147 215.203 92.1824L220.026 92.6615L222.661 92.9324L210.755 93.6876L203.297 92.9324C201.734 92.823 200.219 92.6042 198.745 92.2865C194.578 91.3595 190.771 89.5678 187.318 86.9115C185.901 85.8334 184.547 84.6042 183.245 83.2188C177.724 77.2865 174.969 70.3699 174.969 62.4792V62.4115C174.969 62.3178 174.969 62.2345 174.969 62.1355L175.448 54.474L186.807 53.6511Z" fill="#F0F0FF"/>
</g>
<mask id="mask5_445_1329" style="mask-type:luminance" maskUnits="userSpaceOnUse" x="0" y="43" width="212" height="257">
<path d="M0 43.9114H211.438V299.911H0V43.9114Z" fill="white"/>
</mask>
<g mask="url(#mask5_445_1329)">
<path fill-rule="evenodd" clip-rule="evenodd" d="M109.281 281.542C110.557 281.083 111.812 280.604 113.042 280.099C126.276 274.672 137.656 268.286 147.187 260.938C163.786 248.12 174.854 232.312 180.37 213.516C181.109 210.911 181.812 208.286 182.495 205.646C183.443 201.932 184.349 198.182 185.198 194.385C185.26 194.068 185.333 193.75 185.401 193.427C188.797 178.255 191.38 162.38 193.167 145.797C194.521 133.078 195.411 119.953 195.833 106.417C192.531 105.635 189.385 104.49 186.396 102.995C181.536 100.547 177.088 97.1458 173.052 92.7969C166.208 85.5417 162.146 77.2865 160.87 68.0208L55.7082 60.7031L49.8228 60.2917C49.4582 62.9792 48.8436 65.5365 47.9738 67.9531C47.5675 69.2344 47.0623 70.4635 46.4686 71.651C44.4165 75.9427 41.5207 79.8438 37.7759 83.349C31.2082 89.4219 23.5884 92.8906 14.9269 93.7552C14.9738 95.9479 15.0363 98.1146 15.13 100.255C15.13 100.297 15.13 100.375 15.13 100.458C16.729 137.234 21.8175 171.406 30.3905 202.979C39.6509 236.01 64.6457 262.677 105.385 282.979C106.703 282.521 108 282.042 109.281 281.542ZM210.755 93.6875L210.547 100.943C210.359 110.828 209.937 120.5 209.286 129.958C209.094 132.578 208.885 135.177 208.667 137.755C208.281 142.266 207.838 146.724 207.333 151.141C206.239 160.844 204.87 170.312 203.229 179.542C202.573 183.271 201.859 186.964 201.104 190.625C200.677 192.724 200.234 194.807 199.771 196.891C198.167 204.188 196.375 211.328 194.401 218.307C191.719 227.995 187.755 236.969 182.495 245.234C168.51 267.203 145.406 284.141 113.182 296.052C111.542 296.688 109.854 297.281 108.12 297.828L105.385 298.922L102.646 297.49C55.2967 274.583 26.5571 244.062 16.4321 205.917C6.44254 169.375 1.01025 129.458 0.145671 86.1562L0.0102539 78.901L7.46859 79.2448C8.96859 79.3385 10.4582 79.3125 11.9165 79.1823C13.5988 79.0833 15.2186 78.8385 16.7759 78.4271C20.6925 77.2865 24.255 75.2552 27.4425 72.3385C32.9686 67.1354 35.7238 60.5833 35.7238 52.6927C35.7238 52.6042 35.7238 52.5104 35.7238 52.4219L35.3123 44.6875L175.448 54.474L174.969 62.1354C174.969 62.2344 174.969 62.3177 174.969 62.4115V62.4792C174.969 70.3698 177.724 77.2865 183.245 83.2188C184.547 84.6042 185.901 85.8333 187.318 86.9115C190.771 89.5677 194.578 91.3594 198.745 92.2865C200.219 92.6042 201.734 92.8229 203.297 92.9323L210.755 93.6875Z" fill="#DBDFFF"/>
</g>
<path fill-rule="evenodd" clip-rule="evenodd" d="M21.083 98.75C22.5413 136.026 27.6299 170.651 36.3382 202.635C45.4632 235.073 69.7757 261.38 109.281 281.542C108 282.042 106.703 282.521 105.385 282.979C64.6455 262.677 39.6507 236.01 30.3903 202.979C21.8174 171.406 16.7288 137.234 15.1299 100.458C15.1299 100.375 15.1299 100.297 15.1299 100.255C15.0361 98.1146 14.9736 95.9479 14.9268 93.7552L20.8799 93.4115C20.9215 95.2396 20.9945 97.0156 21.083 98.75ZM216.432 170.917C214.963 180.198 213.229 189.245 211.229 198.047C211.172 198.318 211.114 198.578 211.057 198.833C209.588 205.229 207.979 211.49 206.239 217.62C201.838 233.583 193.922 247.609 182.494 259.708C167.619 275.432 146.797 287.891 120.026 297.078L117.286 298.104L105.385 298.922L108.119 297.828C109.854 297.281 111.541 296.688 113.182 296.052C145.406 284.141 168.51 267.203 182.494 245.234C187.755 236.969 191.718 227.995 194.401 218.307C196.375 211.328 198.166 204.188 199.771 196.891C200.234 194.807 200.677 192.724 201.104 190.625C201.859 186.964 202.573 183.271 203.229 179.542C204.869 170.312 206.239 160.844 207.333 151.141C207.838 146.724 208.281 142.266 208.666 137.755C208.885 135.177 209.093 132.578 209.286 129.958C209.937 120.5 210.359 110.828 210.547 100.943L210.755 93.6875L222.661 92.9323L222.521 100.12C222.448 103.917 222.333 107.682 222.177 111.411C221.869 119.401 221.385 127.25 220.744 134.953C220.515 137.74 220.265 140.51 219.989 143.271C219.599 147.188 219.166 151.078 218.692 154.932C218.026 160.339 217.271 165.667 216.432 170.917ZM175.448 54.474L35.3122 44.6875L47.2236 43.9375L186.807 53.651L175.448 54.474Z" fill="#ABB1EB"/>
<path fill-rule="evenodd" clip-rule="evenodd" d="M147.187 260.937C137.656 268.286 126.276 274.672 113.041 280.099C111.812 280.604 110.557 281.083 109.281 281.542C69.7757 261.38 45.4632 235.073 36.3382 202.635C27.6299 170.651 22.5413 136.026 21.083 98.7499C26.2861 97.0155 31.0049 94.1666 35.2497 90.1926C36.208 89.2864 37.0934 88.3697 37.9163 87.4583C39.9215 86.1822 41.8643 84.677 43.7341 82.9426C48.2913 78.6978 51.6038 73.8385 53.6559 68.3645L152.458 75.276C153.734 84.4947 157.771 92.7499 164.567 100.052C170.765 106.724 177.948 111.151 186.119 113.328C186.552 113.453 186.984 113.568 187.422 113.672C187.187 121.208 186.797 128.62 186.255 135.911C184.052 166.427 179.286 194.693 171.958 220.703C167.437 236.12 159.187 249.536 147.187 260.937Z" fill="#1FBCBF"/>
<path fill-rule="evenodd" clip-rule="evenodd" d="M20.8799 93.4115C27.083 92.7708 32.7653 90.7917 37.9163 87.4583C37.0934 88.3698 36.208 89.2865 35.2497 90.1927C31.0049 94.1667 26.2861 97.0156 21.083 98.75C20.9945 97.0156 20.9215 95.2396 20.8799 93.4115ZM147.187 260.938C159.187 249.536 167.437 236.12 171.958 220.703C179.286 194.693 184.052 166.427 186.255 135.911C186.797 128.62 187.187 121.208 187.422 113.672C186.984 113.568 186.552 113.453 186.119 113.328C177.948 111.151 170.765 106.724 164.567 100.052C157.771 92.75 153.734 84.4948 152.458 75.276L53.6559 68.3646C54.5622 65.901 55.2445 63.3438 55.708 60.7031L160.869 68.0208C162.146 77.2865 166.208 85.5417 173.052 92.7969C177.088 97.1458 181.536 100.547 186.396 102.995C189.385 104.49 192.531 105.635 195.833 106.417C195.411 119.953 194.521 133.078 193.166 145.797C191.38 162.38 188.797 178.255 185.401 193.427C185.333 193.75 185.26 194.068 185.198 194.385C184.349 198.182 183.442 201.932 182.494 205.646C181.812 208.286 181.109 210.911 180.369 213.516C174.854 232.312 163.786 248.12 147.187 260.938Z" fill="#0D8E90"/>
<path fill-rule="evenodd" clip-rule="evenodd" d="M37.9163 87.4584C32.7653 90.7917 27.083 92.7709 20.8799 93.4115L14.9268 93.7553C23.5882 92.8907 31.208 89.422 37.7757 83.349C41.5205 79.8438 44.4163 75.9428 46.4684 71.6511C47.0622 70.4636 47.5674 69.2345 47.9736 67.9532C48.8434 65.5365 49.458 62.9792 49.8226 60.2917L55.708 60.7032C55.2445 63.3438 54.5622 65.9011 53.6559 68.3647C51.6038 73.8386 48.2913 78.698 43.7341 82.9428C41.8643 84.6772 39.9216 86.1824 37.9163 87.4584Z" fill="#9999EF"/>
</svg>
