<svg width="1440" height="761" viewBox="0 0 1440 761" fill="none" xmlns="http://www.w3.org/2000/svg">
<path d="M-84.7702 0H1840.77C1840.77 0 2151.79 170.968 1840.77 359C1674.89 459.284 1612 462 1402.5 403.345C1193 344.691 1106.11 510 878 510C649.892 510 554.521 423.579 346.471 446.316C138.42 469.053 81.1057 623.442 -84.7702 523.158C-395.787 335.126 -84.7702 0 -84.7702 0Z" fill="#42A7C3"/>
<rect opacity="0.06" x="484.141" y="282.356" width="162.632" height="162.632" rx="22.7893" transform="rotate(120 484.141 282.356)" fill="white"/>
<rect opacity="0.06" x="324.021" y="411.846" width="162.632" height="162.632" rx="22.7893" transform="rotate(120 324.021 411.846)" fill="white"/>
<rect opacity="0.06" x="157.57" y="315.745" width="162.632" height="162.632" rx="22.7893" transform="rotate(120 157.57 315.745)" fill="white"/>
<rect opacity="0.06" x="317.691" y="186.255" width="162.632" height="162.632" rx="22.7893" transform="rotate(120 317.691 186.255)" fill="white"/>
<rect opacity="0.08" x="1131.58" y="5.69702" width="221.406" height="221.406" rx="40" transform="rotate(45 1131.58 5.69702)" fill="white"/>
<rect opacity="0.08" x="1245.44" y="261.882" width="221.406" height="221.406" rx="40" transform="rotate(45 1245.44 261.882)" fill="white"/>
<rect opacity="0.08" x="1060.42" y="446.905" width="221.406" height="221.406" rx="40" transform="rotate(45 1060.42 446.905)" fill="white"/>
<rect opacity="0.08" x="946.558" y="190.719" width="221.406" height="221.406" rx="40" transform="rotate(45 946.558 190.719)" fill="white"/>
</svg>
